<svg width="24" height="25" viewBox="0 0 24 25" fill="none" xmlns="http://www.w3.org/2000/svg">
<path d="M21.5992 10.4256H12.1992V14.1256H17.6992C17.5992 15.0256 16.9992 16.4256 15.6992 17.3256C14.8992 17.9256 13.6992 18.3256 12.1992 18.3256C9.59922 18.3256 7.29922 16.6256 6.49922 14.1256C6.29922 13.5256 6.19922 12.8256 6.19922 12.1256C6.19922 11.4256 6.29922 10.7256 6.49922 10.1256C6.59922 9.92559 6.59922 9.72559 6.69922 9.62559C7.59922 7.52559 9.69922 6.02559 12.1992 6.02559C14.0992 6.02559 15.2992 6.82559 16.0992 7.52559L18.8992 4.72559C17.1992 3.22559 14.8992 2.22559 12.1992 2.22559C8.29922 2.22559 4.89922 4.42559 3.29922 7.72559C2.59922 9.12559 2.19922 10.6256 2.19922 12.2256C2.19922 13.8256 2.59922 15.3256 3.29922 16.7256C4.89922 20.0256 8.29922 22.2256 12.1992 22.2256C14.8992 22.2256 17.1992 21.3256 18.7992 19.8256C20.6992 18.1256 21.7992 15.5256 21.7992 12.4256C21.7992 11.6256 21.6992 11.0256 21.5992 10.4256Z" stroke="#595959" stroke-width="1.5" stroke-miterlimit="10" stroke-linecap="round" stroke-linejoin="round"/>
</svg>
